<svg width="378" height="355" viewBox="0 0 378 355" fill="none" xmlns="http://www.w3.org/2000/svg">
<path d="M-126 171.996L-47.3354 384H127.846L32.9499 140.308L-126 171.996Z" fill="url(#paint0_linear_19_300)"/>
<path d="M-126 171.996L-47.3354 384H127.846L32.9499 140.308L-126 171.996Z" fill="url(#paint1_linear_19_300)"/>
<path d="M164.257 383.077L66.9229 133.054L160.962 109.544L265.783 83.5386L366.461 383.027L164.257 383.077Z" fill="url(#paint2_linear_19_300)"/>
<path d="M66.9828 132.987L-47.5381 384H127.914L266.308 83.5386L66.9828 132.987Z" fill="#FFD100"/>
<path d="M309.555 68.1918L164.308 383.077H366.327L522.923 0L309.555 68.1918Z" fill="#E20613"/>
<path d="M265.846 84.2743L265.771 84L66.9229 133.298L147.739 340.615L265.846 84.2743Z" fill="url(#paint3_linear_19_300)"/>
<path d="M-47.5381 384H127.847L47.0188 176.769L-47.5381 384Z" fill="url(#paint4_linear_19_300)"/>
<path d="M164.308 383.077H366.461L281.257 129.692L164.308 383.077Z" fill="url(#paint5_linear_19_300)"/>
<defs>
<linearGradient id="paint0_linear_19_300" x1="0.910586" y1="384" x2="0.910586" y2="140.333" gradientUnits="userSpaceOnUse">
<stop stop-color="#2B3087"/>
<stop offset="0.82" stop-color="#00B4EC"/>
</linearGradient>
<linearGradient id="paint1_linear_19_300" x1="0.859599" y1="384" x2="0.859599" y2="139.627" gradientUnits="userSpaceOnUse">
<stop stop-color="#2B3087"/>
<stop offset="1" stop-color="#118FB7"/>
</linearGradient>
<linearGradient id="paint2_linear_19_300" x1="216.617" y1="383.077" x2="216.617" y2="83.5386" gradientUnits="userSpaceOnUse">
<stop stop-color="#2B3087"/>
<stop offset="1" stop-color="#00B4EC"/>
</linearGradient>
<linearGradient id="paint3_linear_19_300" x1="166.397" y1="340.615" x2="166.397" y2="84" gradientUnits="userSpaceOnUse">
<stop stop-color="#009540"/>
<stop offset="1" stop-color="#26A960"/>
</linearGradient>
<linearGradient id="paint4_linear_19_300" x1="40.1542" y1="176.769" x2="40.1542" y2="384" gradientUnits="userSpaceOnUse">
<stop stop-color="#3FAE6C"/>
<stop offset="1" stop-color="#006633"/>
</linearGradient>
<linearGradient id="paint5_linear_19_300" x1="164.308" y1="256.41" x2="366.461" y2="256.41" gradientUnits="userSpaceOnUse">
<stop stop-color="#164194"/>
<stop offset="1" stop-color="#005CA9"/>
</linearGradient>
</defs>
</svg>
