<svg width="16" height="16" viewBox="0 0 16 16" fill="none" xmlns="http://www.w3.org/2000/svg">
<path fill-rule="evenodd" clip-rule="evenodd" d="M8.70711 1.70711C9.09763 1.31658 9.09763 0.683417 8.70711 0.292893C8.31658 -0.0976311 7.68342 -0.0976311 7.29289 0.292893L0.296735 7.28905C0.283664 7.30198 0.270948 7.31527 0.258603 7.3289C0.0978956 7.50634 0 7.74173 0 7.99998C0 8.00099 1.46447e-06 8.00199 4.43939e-06 8.003C0.000391752 8.13402 0.025974 8.2591 0.0721608 8.37367C0.120974 8.49504 0.194551 8.60877 0.292893 8.70711L7.29289 15.7071C7.68342 16.0976 8.31658 16.0976 8.70711 15.7071C9.09763 15.3166 9.09763 14.6834 8.70711 14.2929L3.41419 8.99998H15C15.5523 8.99998 16 8.55227 16 7.99998C16 7.4477 15.5523 6.99998 15 6.99998H3.41423L8.70711 1.70711Z" fill="white"/>
</svg>
